<svg xmlns="http://www.w3.org/2000/svg" width="559pt" height="260pt" viewBox="0 0 559 260">
    <g class="graph" transform="translate(4 256)">
        <title>G</title>
        <path fill="#fff" d="M-4 4v-260h558.7V4z"/>
        <g class="node">
            <title>:feature:hotel-profile:data</title>
            <ellipse cx="234.07" cy="-234" fill="none" stroke="#000" rx="105.6" ry="18"/>
            <text xml:space="preserve" x="234.07" y="-228.95" font-family="Times,serif" font-size="14" text-anchor="middle">:feature:hotel-profile:data</text>
        </g>
        <g class="node">
            <title>:core:ui</title>
            <ellipse cx="39.07" cy="-90" fill="none" stroke="#000" rx="39.07" ry="18"/>
            <text xml:space="preserve" x="39.07" y="-84.95" font-family="Times,serif" font-size="14" text-anchor="middle">:core:ui</text>
        </g>
        <g class="edge">
            <title>:feature:hotel-profile:data-&gt;:core:ui</title>
            <path fill="none" stroke="#000" d="M143.56-224.53c-31.02 7.31-63.44 20.59-85.49 44.53-14.82 16.09-19.17 40.81-20.04 60.12"/>
            <path stroke="#000" d="m41.53-119.87-3.63 9.96-3.37-10.05z"/>
        </g>
        <g class="node">
            <title>:core:designsystem</title>
            <ellipse cx="178.07" cy="-90" fill="none" stroke="#000" rx="82.06" ry="18"/>
            <text xml:space="preserve" x="178.07" y="-84.95" font-family="Times,serif" font-size="14" text-anchor="middle">:core:designsystem</text>
        </g>
        <g class="edge">
            <title>:feature:hotel-profile:data-&gt;:core:designsystem</title>
            <path fill="none" stroke="#000" d="M227.2-215.59c-9.54 24.19-26.9 68.23-38.23 96.94"/>
            <path stroke="#000" d="m192.3-117.54-6.93 8.02.41-10.59z"/>
        </g>
        <g class="node">
            <title>:core:common</title>
            <ellipse cx="343.07" cy="-90" fill="none" stroke="#000" rx="65.17" ry="18"/>
            <text xml:space="preserve" x="343.07" y="-84.95" font-family="Times,serif" font-size="14" text-anchor="middle">:core:common</text>
        </g>
        <g class="edge">
            <title>:feature:hotel-profile:data-&gt;:core:common</title>
            <path fill="none" stroke="#000" d="M238.56-215.52c5.54 19.06 16.37 49.73 33.51 71.52 9.38 11.92 22.07 22.53 34.13 31.06"/>
            <path stroke="#000" d="m308.07-115.9 6.33 8.49-10.24-2.69z"/>
        </g>
        <g class="node">
            <title>:core:domain</title>
            <ellipse cx="127.07" cy="-162" fill="none" stroke="#000" rx="60.05" ry="18"/>
            <text xml:space="preserve" x="127.07" y="-156.95" font-family="Times,serif" font-size="14" text-anchor="middle">:core:domain</text>
        </g>
        <g class="edge">
            <title>:feature:hotel-profile:data-&gt;:core:domain</title>
            <path fill="none" stroke="red" stroke-width="2" d="M208.44-216.23c-14.34 9.38-32.38 21.18-47.83 31.28"/>
            <path fill="red" stroke="red" stroke-width="2" d="m164.2-183.11-10.28 2.54 6.45-8.4z"/>
        </g>
        <g class="node">
            <title>:core:database</title>
            <ellipse cx="487.07" cy="-162" fill="none" stroke="#000" rx="63.63" ry="18"/>
            <text xml:space="preserve" x="487.07" y="-156.95" font-family="Times,serif" font-size="14" text-anchor="middle">:core:database</text>
        </g>
        <g class="edge">
            <title>:feature:hotel-profile:data-&gt;:core:database</title>
            <path fill="none" stroke="#000" d="M287.72-218.15c42.35 11.71 101.21 28 143.98 39.83"/>
            <path stroke="#000" d="m432.6-181.7 8.7 6.04-10.57.7z"/>
        </g>
        <g class="node">
            <title>:core:network</title>
            <ellipse cx="343.07" cy="-162" fill="none" stroke="#000" rx="62.1" ry="18"/>
            <text xml:space="preserve" x="343.07" y="-156.95" font-family="Times,serif" font-size="14" text-anchor="middle">:core:network</text>
        </g>
        <g class="edge">
            <title>:feature:hotel-profile:data-&gt;:core:network</title>
            <path fill="none" stroke="#000" d="M260.18-216.23c14.6 9.38 32.98 21.18 48.72 31.28"/>
            <path stroke="#000" d="m310.5-188.08 6.52 8.35-10.3-2.46z"/>
        </g>
        <g class="node">
            <title>:core:model</title>
            <ellipse cx="389.07" cy="-18" fill="none" stroke="#000" rx="55.45" ry="18"/>
            <text xml:space="preserve" x="389.07" y="-12.95" font-family="Times,serif" font-size="14" text-anchor="middle">:core:model</text>
        </g>
        <g class="edge">
            <title>:core:common-&gt;:core:model</title>
            <path fill="none" stroke="red" stroke-width="2" d="M354.2-72.05c5.26 7.99 11.65 17.72 17.52 26.65"/>
            <path fill="red" stroke="red" stroke-width="2" d="m373.81-48.6 2.56 10.28-8.41-6.43z"/>
        </g>
        <g class="edge">
            <title>:core:domain-&gt;:core:ui</title>
            <path fill="none" stroke="#000" d="M106.66-144.76c-11.77 9.36-26.73 21.26-39.59 31.48"/>
            <path stroke="#000" d="m69.35-110.62-10 3.49 5.64-8.97z"/>
        </g>
        <g class="edge">
            <title>:core:domain-&gt;:core:designsystem</title>
            <path fill="none" stroke="#000" d="M139.41-144.05c5.81 7.96 12.86 17.64 19.34 26.54"/>
            <path stroke="#000" d="m161.53-119.64 3.06 10.14-8.72-6.02z"/>
        </g>
        <g class="edge">
            <title>:core:domain-&gt;:core:common</title>
            <path fill="none" stroke="red" stroke-width="2" d="M166.94-148.08c34.95 11.33 85.98 27.87 124.13 40.23"/>
            <path fill="red" stroke="red" stroke-width="2" d="m290.65-111.67 8.43 6.42-10.59.24z"/>
        </g>
        <g class="edge">
            <title>:core:database-&gt;:core:model</title>
            <path fill="none" stroke="#000" d="M475.25-143.87c-16.94 24.54-48.27 69.93-68.12 98.7"/>
            <path stroke="#000" d="m410.05-43.24-8.56 6.25 2.8-10.22z"/>
        </g>
        <g class="edge">
            <title>:core:network-&gt;:core:common</title>
            <path fill="none" stroke="#000" d="M343.07-143.7v24.16"/>
            <path stroke="#000" d="m346.57-119.62-3.5 10-3.5-10z"/>
        </g>
    </g>
</svg>
