<svg xmlns="http://www.w3.org/2000/svg" width="878pt" height="332pt" viewBox="0 0 878 332">
    <g class="graph" transform="translate(4 328)">
        <title>G</title>
        <path fill="#fff" d="M-4 4v-332h878.25V4z"/>
        <g class="node">
            <title>:sync:work</title>
            <ellipse cx="274.07" cy="-306" fill="none" stroke="#000" rx="51.86" ry="18"/>
            <text xml:space="preserve" x="274.07" y="-300.95" font-family="Times,serif" font-size="14" text-anchor="middle">:sync:work</text>
        </g>
        <g class="node">
            <title>:core:domain</title>
            <ellipse cx="184.07" cy="-162" fill="none" stroke="#000" rx="60.05" ry="18"/>
            <text xml:space="preserve" x="184.07" y="-156.95" font-family="Times,serif" font-size="14" text-anchor="middle">:core:domain</text>
        </g>
        <g class="edge">
            <title>:sync:work-&gt;:core:domain</title>
            <path fill="none" stroke="#000" d="M257.15-288.88c-9.88 10-22.12 23.46-31.08 36.88-12.87 19.3-23.91 43.17-31.43 61.33"/>
            <path stroke="#000" d="m197.97-189.57-6.98 7.97.48-10.58z"/>
        </g>
        <g class="node">
            <title>:feature:hotel-profile:data</title>
            <ellipse cx="341.07" cy="-234" fill="none" stroke="#000" rx="105.6" ry="18"/>
            <text xml:space="preserve" x="341.07" y="-228.95" font-family="Times,serif" font-size="14" text-anchor="middle">:feature:hotel-profile:data</text>
        </g>
        <g class="edge">
            <title>:sync:work-&gt;:feature:hotel-profile:data</title>
            <path fill="none" stroke="red" stroke-width="2" d="M289.95-288.41c8.06 8.42 18.02 18.83 27 28.21"/>
            <path fill="red" stroke="red" stroke-width="2" d="m318.37-263.79 4.38 9.65-9.44-4.81z"/>
        </g>
        <g class="node">
            <title>:feature:content:data</title>
            <ellipse cx="92.07" cy="-234" fill="none" stroke="#000" rx="86.67" ry="18"/>
            <text xml:space="preserve" x="92.07" y="-228.95" font-family="Times,serif" font-size="14" text-anchor="middle">:feature:content:data</text>
        </g>
        <g class="edge">
            <title>:sync:work-&gt;:feature:content:data</title>
            <path fill="none" stroke="#000" d="M240.27-292c-27.4 10.54-66.44 25.56-97.57 37.53"/>
            <path stroke="#000" d="m144.05-251.24-10.59.32 8.08-6.85z"/>
        </g>
        <g class="node">
            <title>:feature:restaurant:data</title>
            <ellipse cx="591.07" cy="-234" fill="none" stroke="#000" rx="95.88" ry="18"/>
            <text xml:space="preserve" x="591.07" y="-228.95" font-family="Times,serif" font-size="14" text-anchor="middle">:feature:restaurant:data</text>
        </g>
        <g class="edge">
            <title>:sync:work-&gt;:feature:restaurant:data</title>
            <path fill="none" stroke="#000" d="M317.16-295.49c52.06 11.5 140.4 31.01 202.66 44.76"/>
            <path stroke="#000" d="m520.25-254.22 9.01 5.57-10.52 1.26z"/>
        </g>
        <g class="node">
            <title>:core:common</title>
            <ellipse cx="523.07" cy="-90" fill="none" stroke="#000" rx="65.17" ry="18"/>
            <text xml:space="preserve" x="523.07" y="-84.95" font-family="Times,serif" font-size="14" text-anchor="middle">:core:common</text>
        </g>
        <g class="edge">
            <title>:core:domain-&gt;:core:common</title>
            <path fill="none" stroke="red" stroke-width="2" d="m232.65-150.97 228.42 47.17"/>
            <path fill="red" stroke="red" stroke-width="2" d="m460.05-107.59 9.09 5.45-10.5 1.41z"/>
        </g>
        <g class="node">
            <title>:core:ui</title>
            <ellipse cx="254.07" cy="-90" fill="none" stroke="#000" rx="39.07" ry="18"/>
            <text xml:space="preserve" x="254.07" y="-84.95" font-family="Times,serif" font-size="14" text-anchor="middle">:core:ui</text>
        </g>
        <g class="edge">
            <title>:core:domain-&gt;:core:ui</title>
            <path fill="none" stroke="#000" d="m200.66-144.41 30.04 30.04"/>
            <path stroke="#000" d="m232.9-117.13 4.59 9.55-9.54-4.6z"/>
        </g>
        <g class="node">
            <title>:core:designsystem</title>
            <ellipse cx="106.07" cy="-90" fill="none" stroke="#000" rx="82.06" ry="18"/>
            <text xml:space="preserve" x="106.07" y="-84.95" font-family="Times,serif" font-size="14" text-anchor="middle">:core:designsystem</text>
        </g>
        <g class="edge">
            <title>:core:domain-&gt;:core:designsystem</title>
            <path fill="none" stroke="#000" d="M165.59-144.41c-9.57 8.59-21.45 19.25-32.07 28.78"/>
            <path stroke="#000" d="m135.88-113.04-9.78 4.07 5.1-9.28z"/>
        </g>
        <g class="edge">
            <title>:feature:hotel-profile:data-&gt;:core:domain</title>
            <path fill="none" stroke="red" stroke-width="2" d="M304.66-216.76c-23.2 10.34-53.36 23.79-77.71 34.65"/>
            <path fill="red" stroke="red" stroke-width="2" d="m229.88-179.59-10.56.87 7.71-7.26z"/>
        </g>
        <g class="edge">
            <title>:feature:hotel-profile:data-&gt;:core:common</title>
            <path fill="none" stroke="#000" d="M376.37-216.71c18.85 9.47 41.96 22.36 60.7 36.71 13.33 10.21 42.43 41.11 63.08 63.64"/>
            <path stroke="#000" d="m502.7-118.76 4.15 9.75-9.32-5.03z"/>
        </g>
        <g class="edge">
            <title>:feature:hotel-profile:data-&gt;:core:ui</title>
            <path fill="none" stroke="#000" d="M322.2-216.23c-10.21 9.81-22.46 22.86-31.13 36.23-12.3 18.98-21.92 42.73-28.27 60.92"/>
            <path stroke="#000" d="m266.16-118.11-6.49 8.38-.14-10.6z"/>
        </g>
        <g class="edge">
            <title>:feature:hotel-profile:data-&gt;:core:designsystem</title>
            <path fill="none" stroke="#000" d="M255.09-223.23c-55.79 8.22-121.43 22.07-140.02 43.23-14.25 16.24-15.67 41.11-13.99 60.44"/>
            <path stroke="#000" d="m104.52-120.22-2.27 10.35-4.68-9.51z"/>
        </g>
        <g class="node">
            <title>:core:database</title>
            <ellipse cx="364.07" cy="-162" fill="none" stroke="#000" rx="63.63" ry="18"/>
            <text xml:space="preserve" x="364.07" y="-156.95" font-family="Times,serif" font-size="14" text-anchor="middle">:core:database</text>
        </g>
        <g class="edge">
            <title>:feature:hotel-profile:data-&gt;:core:database</title>
            <path fill="none" stroke="#000" d="M346.76-215.7c2.45 7.46 5.38 16.38 8.13 24.73"/>
            <path stroke="#000" d="m358.19-192.14-.21 10.6-6.44-8.41z"/>
        </g>
        <g class="node">
            <title>:core:network</title>
            <ellipse cx="546.07" cy="-162" fill="none" stroke="#000" rx="62.1" ry="18"/>
            <text xml:space="preserve" x="546.07" y="-156.95" font-family="Times,serif" font-size="14" text-anchor="middle">:core:network</text>
        </g>
        <g class="edge">
            <title>:feature:hotel-profile:data-&gt;:core:network</title>
            <path fill="none" stroke="#000" d="m386.83-217.38 109.3 37.33"/>
            <path stroke="#000" d="m497.25-183.37 8.34 6.54-10.6.08z"/>
        </g>
        <g class="edge">
            <title>:feature:content:data-&gt;:core:domain</title>
            <path fill="none" stroke="#000" d="M113.88-216.41c11.88 9.04 26.78 20.38 39.8 30.28"/>
            <path stroke="#000" d="m155.7-188.99 5.84 8.85-10.08-3.27z"/>
        </g>
        <g class="edge">
            <title>:feature:content:data-&gt;:core:common</title>
            <path fill="none" stroke="#000" d="M91.23-215.7c.04 20.39 3.51 53.74 23.84 71.7 24.53 21.67 223.03 39.47 333.85 47.84"/>
            <path stroke="#000" d="m449.13-99.65 9.71 4.23-10.24 2.75z"/>
        </g>
        <g class="edge">
            <title>:feature:content:data-&gt;:core:ui</title>
            <path fill="none" stroke="#000" d="M71.74-216.2c-20.2 18.72-45.76 49.36-27.67 72.2 43.38 54.76 85.5 18.01 153 36 4.61 1.23 9.4 2.56 14.17 3.93"/>
            <path stroke="#000" d="m212.14-107.45 8.62 6.16-10.58.56z"/>
        </g>
        <g class="edge">
            <title>:feature:content:data-&gt;:core:designsystem</title>
            <path fill="none" stroke="#000" d="M50.14-217.84c-16.83 8.4-34.49 20.69-44.07 37.84-7.8 13.97-8.24 22.29 0 36 9.32 15.48 24.84 26.67 40.9 34.66"/>
            <path stroke="#000" d="m47.97-112.73 7.65 7.34-10.55-.97z"/>
        </g>
        <g class="edge">
            <title>:feature:content:data-&gt;:core:database</title>
            <path fill="none" stroke="#000" d="M145.16-219.34c46.67 12.01 114.38 29.44 162.12 41.72"/>
            <path stroke="#000" d="m308.07-181.03 8.81 5.89-10.55.89z"/>
        </g>
        <g class="edge">
            <title>:feature:content:data-&gt;:core:network</title>
            <path fill="none" stroke="#000" d="M160.49-222.54c69.61 10.66 180.62 27.69 276.58 42.54 14.19 2.2 29.42 4.56 43.86 6.81"/>
            <path stroke="#000" d="m481.46-176.64 9.35 5-10.42 1.91z"/>
        </g>
        <g class="edge">
            <title>:feature:restaurant:data-&gt;:core:domain</title>
            <path fill="none" stroke="#000" d="M522.03-221.13c-77.23 13.29-201.22 34.61-275.61 47.41"/>
            <path stroke="#000" d="m247.31-170.32-10.45-1.76 9.26-5.14z"/>
        </g>
        <g class="edge">
            <title>:feature:restaurant:data-&gt;:core:common</title>
            <path fill="none" stroke="#000" d="M640.25-218.21c18.34 8.17 37.25 20.38 47.82 38.21 8.17 13.76 9.43 23.07 0 36-20.7 28.4-56.86 41.91-90.06 48.22"/>
            <path stroke="#000" d="m598.83-92.37-10.44-1.79 9.28-5.11z"/>
        </g>
        <g class="edge">
            <title>:feature:restaurant:data-&gt;:core:ui</title>
            <path fill="none" stroke="#000" d="M615.34-216.32c24.18 18.61 55 49.16 34.73 72.32-11.32 12.94-242.84 37.65-346.52 48.12"/>
            <path stroke="#000" d="m303.95-92.41-10.3-2.48 9.6-4.48z"/>
        </g>
        <g class="edge">
            <title>:feature:restaurant:data-&gt;:core:designsystem</title>
            <path fill="none" stroke="#000" d="M604.66-215.75c13.78 19.71 30.68 51.81 12.41 71.75-30.96 33.8-365.53 30.15-411 36-8.87 1.14-18.17 2.5-27.37 3.94"/>
            <path stroke="#000" d="m179.49-100.64-10.43-1.86 9.32-5.05z"/>
        </g>
        <g class="edge">
            <title>:feature:restaurant:data-&gt;:core:database</title>
            <path fill="none" stroke="#000" d="M542.66-218.07c-36.98 11.4-87.87 27.1-125.87 38.81"/>
            <path stroke="#000" d="m417.97-175.96-10.59-.4 8.53-6.29z"/>
        </g>
        <g class="edge">
            <title>:feature:restaurant:data-&gt;:core:network</title>
            <path fill="none" stroke="#000" d="M579.95-215.7c-5.07 7.89-11.18 17.4-16.81 26.15"/>
            <path stroke="#000" d="m566.24-187.9-8.35 6.52 2.46-10.3z"/>
        </g>
        <g class="node">
            <title>:core:datastore</title>
            <ellipse cx="805.07" cy="-162" fill="none" stroke="#000" rx="65.17" ry="18"/>
            <text xml:space="preserve" x="805.07" y="-156.95" font-family="Times,serif" font-size="14" text-anchor="middle">:core:datastore</text>
        </g>
        <g class="edge">
            <title>:feature:restaurant:data-&gt;:core:datastore</title>
            <path fill="none" stroke="#000" d="M637.51-217.81c34.2 11.19 80.71 26.4 116.05 37.96"/>
            <path stroke="#000" d="m754.29-183.29 8.42 6.43-10.59.22z"/>
        </g>
        <g class="node">
            <title>:core:model</title>
            <ellipse cx="523.07" cy="-18" fill="none" stroke="#000" rx="55.45" ry="18"/>
            <text xml:space="preserve" x="523.07" y="-12.95" font-family="Times,serif" font-size="14" text-anchor="middle">:core:model</text>
        </g>
        <g class="edge">
            <title>:core:common-&gt;:core:model</title>
            <path fill="none" stroke="red" stroke-width="2" d="M523.07-71.7v24.16"/>
            <path fill="red" stroke="red" stroke-width="2" d="m526.58-49.13-3.51 10-3.49-10z"/>
        </g>
        <g class="edge">
            <title>:core:database-&gt;:core:model</title>
            <path fill="none" stroke="#000" d="M378.57-144.02c16.27 18.62 43.88 48.91 70.5 72.02 12.68 11 27.58 22 40.67 31.1"/>
            <path stroke="#000" d="m491.37-44.02 6.28 8.53-10.23-2.76z"/>
        </g>
        <g class="edge">
            <title>:core:network-&gt;:core:common</title>
            <path fill="none" stroke="#000" d="M540.39-143.7c-2.45 7.46-5.38 16.38-8.13 24.73"/>
            <path stroke="#000" d="m535.61-117.95-6.44 8.41-.21-10.6z"/>
        </g>
        <g class="edge">
            <title>:core:datastore-&gt;:core:common</title>
            <path fill="none" stroke="#000" d="M757.87-149.28c-48.49 12.03-124.08 30.8-176.34 43.77"/>
            <path stroke="#000" d="m582.45-102.13-10.55-.99 8.86-5.81z"/>
        </g>
        <g class="edge">
            <title>:core:datastore-&gt;:core:model</title>
            <path fill="none" stroke="#000" d="M774.63-145.67c-51.49 25.93-155.67 78.39-212.47 106.99"/>
            <path stroke="#000" d="m563.98-35.68-10.5 1.37 7.36-7.62z"/>
        </g>
    </g>
</svg>
