<svg xmlns="http://www.w3.org/2000/svg" width="515pt" height="332pt" viewBox="0 0 515 332">
    <g class="graph" transform="translate(4 328)">
        <title>G</title>
        <path fill="#fff" d="M-4 4v-332h514.81V4z"/>
        <g class="node">
            <title>:core:domain</title>
            <ellipse cx="181.17" cy="-306" fill="none" stroke="#000" rx="60.05" ry="18"/>
            <text xml:space="preserve" x="181.17" y="-300.95" font-family="Times,serif" font-size="14" text-anchor="middle">:core:domain</text>
        </g>
        <g class="node">
            <title>:core:common</title>
            <ellipse cx="65.17" cy="-90" fill="none" stroke="#000" rx="65.17" ry="18"/>
            <text xml:space="preserve" x="65.17" y="-84.95" font-family="Times,serif" font-size="14" text-anchor="middle">:core:common</text>
        </g>
        <g class="edge">
            <title>:core:domain-&gt;:core:common</title>
            <path fill="none" stroke="#000" d="M138.86-292.93c-22.23 8.28-48.39 21.38-65.69 40.93-32.65 36.9-32.62 59.32-25 108 1.28 8.21 3.62 16.89 6.17 24.79"/>
            <path stroke="#000" d="m57.64-120.36-.03 10.59-6.58-8.3z"/>
        </g>
        <g class="node">
            <title>:core:data</title>
            <ellipse cx="129.17" cy="-234" fill="none" stroke="#000" rx="47.26" ry="18"/>
            <text xml:space="preserve" x="129.17" y="-228.95" font-family="Times,serif" font-size="14" text-anchor="middle">:core:data</text>
        </g>
        <g class="edge">
            <title>:core:domain-&gt;:core:data</title>
            <path fill="none" stroke="red" stroke-width="2" d="M168.58-288.05c-6.07 8.16-13.48 18.14-20.23 27.23"/>
            <path fill="red" stroke="red" stroke-width="2" d="m152.22-260.16-8.77 5.94 3.15-10.11z"/>
        </g>
        <g class="node">
            <title>:core:ui</title>
            <ellipse cx="233.17" cy="-234" fill="none" stroke="#000" rx="39.07" ry="18"/>
            <text xml:space="preserve" x="233.17" y="-228.95" font-family="Times,serif" font-size="14" text-anchor="middle">:core:ui</text>
        </g>
        <g class="edge">
            <title>:core:domain-&gt;:core:ui</title>
            <path fill="none" stroke="#000" d="M193.76-288.05c6.16 8.28 13.69 18.43 20.52 27.63"/>
            <path stroke="#000" d="m217-262.64 3.15 10.12-8.77-5.94z"/>
        </g>
        <g class="node">
            <title>:core:designsystem</title>
            <ellipse cx="372.17" cy="-234" fill="none" stroke="#000" rx="82.06" ry="18"/>
            <text xml:space="preserve" x="372.17" y="-228.95" font-family="Times,serif" font-size="14" text-anchor="middle">:core:designsystem</text>
        </g>
        <g class="edge">
            <title>:core:domain-&gt;:core:designsystem</title>
            <path fill="none" stroke="#000" d="M218-291.5c29.12 10.67 70.12 25.7 102.52 37.57"/>
            <path stroke="#000" d="m321.55-257.28 8.18 6.73-10.59-.16z"/>
        </g>
        <g class="node">
            <title>:core:model</title>
            <ellipse cx="158.17" cy="-18" fill="none" stroke="#000" rx="55.45" ry="18"/>
            <text xml:space="preserve" x="158.17" y="-12.95" font-family="Times,serif" font-size="14" text-anchor="middle">:core:model</text>
        </g>
        <g class="edge">
            <title>:core:common-&gt;:core:model</title>
            <path fill="none" stroke="red" stroke-width="2" d="M86.74-72.76c12.29 9.25 27.89 20.99 41.37 31.13"/>
            <path fill="red" stroke="red" stroke-width="2" d="m128.73-45.54 5.89 8.81-10.1-3.21z"/>
        </g>
        <g class="edge">
            <title>:core:data-&gt;:core:common</title>
            <path fill="none" stroke="#000" d="M99.92-219.49c-15.45 8.85-32.99 22.03-41.75 39.49-9.45 18.84-6.88 42.78-2.4 61.09"/>
            <path stroke="#000" d="m59.07-120.11-.68 10.58-6.06-8.69z"/>
        </g>
        <g class="node">
            <title>:core:database</title>
            <ellipse cx="443.17" cy="-90" fill="none" stroke="#000" rx="63.63" ry="18"/>
            <text xml:space="preserve" x="443.17" y="-84.95" font-family="Times,serif" font-size="14" text-anchor="middle">:core:database</text>
        </g>
        <g class="edge">
            <title>:core:data-&gt;:core:database</title>
            <path fill="none" stroke="#000" d="M164.6-221.79c6.8 2.02 13.89 4.04 20.57 5.79 71.77 18.79 97.37 1.41 163 36 29.65 15.63 56.82 43.01 74.44 63.29"/>
            <path stroke="#000" d="m425.25-119.01 3.79 9.89-9.13-5.37z"/>
        </g>
        <g class="node">
            <title>:core:datastore</title>
            <ellipse cx="274.17" cy="-162" fill="none" stroke="#000" rx="65.17" ry="18"/>
            <text xml:space="preserve" x="274.17" y="-156.95" font-family="Times,serif" font-size="14" text-anchor="middle">:core:datastore</text>
        </g>
        <g class="edge">
            <title>:core:data-&gt;:core:datastore</title>
            <path fill="none" stroke="red" stroke-width="2" d="M157.47-219.34c21.32 10.3 50.9 24.57 74.93 36.18"/>
            <path fill="red" stroke="red" stroke-width="2" d="m232.46-187.02 7.48 7.5-10.53-1.2z"/>
        </g>
        <g class="node">
            <title>:core:network</title>
            <ellipse cx="129.17" cy="-162" fill="none" stroke="#000" rx="62.1" ry="18"/>
            <text xml:space="preserve" x="129.17" y="-156.95" font-family="Times,serif" font-size="14" text-anchor="middle">:core:network</text>
        </g>
        <g class="edge">
            <title>:core:data-&gt;:core:network</title>
            <path fill="none" stroke="#000" d="M129.17-215.7v24.16"/>
            <path stroke="#000" d="m132.67-191.62-3.5 10-3.5-10z"/>
        </g>
        <g class="edge">
            <title>:core:database-&gt;:core:model</title>
            <path fill="none" stroke="#000" d="M396.11-77.44c-50.48 12.4-130.53 32.06-183.64 45.1"/>
            <path stroke="#000" d="m213.58-29.01-10.55-1.01 8.88-5.78z"/>
        </g>
        <g class="edge">
            <title>:core:datastore-&gt;:core:common</title>
            <path fill="none" stroke="red" stroke-width="2" d="M233.87-147.5c-33.54 11.23-81.48 27.29-117.69 39.42"/>
            <path fill="red" stroke="red" stroke-width="2" d="m118.81-105.27-10.6-.15 8.37-6.49z"/>
        </g>
        <g class="edge">
            <title>:core:datastore-&gt;:core:model</title>
            <path fill="none" stroke="#000" d="M232.78-147.65c-19.67 8.39-41.85 21.19-55.61 39.65-12.86 17.25-17.41 41.33-18.86 60.09"/>
            <path stroke="#000" d="m161.81-47.8-3.98 9.82-3.01-10.16z"/>
        </g>
        <g class="node">
            <title>:core:datastore-proto</title>
            <ellipse cx="274.17" cy="-90" fill="none" stroke="#000" rx="87.69" ry="18"/>
            <text xml:space="preserve" x="274.17" y="-84.95" font-family="Times,serif" font-size="14" text-anchor="middle">:core:datastore-proto</text>
        </g>
        <g class="edge">
            <title>:core:datastore-&gt;:core:datastore-proto</title>
            <path fill="none" stroke="#000" d="M274.17-143.7v24.16"/>
            <path stroke="#000" d="m277.67-119.62-3.5 10-3.5-10z"/>
        </g>
        <g class="edge">
            <title>:core:network-&gt;:core:common</title>
            <path fill="none" stroke="#000" d="M114-144.41c-7.69 8.42-17.21 18.83-25.79 28.21"/>
            <path stroke="#000" d="m91.03-114.09-9.34 5.02 4.17-9.75z"/>
        </g>
    </g>
</svg>
