<svg xmlns="http://www.w3.org/2000/svg" width="416pt" height="188pt" viewBox="0 0 416 188">
    <g class="graph" transform="translate(4 184)">
        <title>G</title>
        <path fill="#fff" d="M-4 4v-188h416.23V4z"/>
        <g class="node">
            <title>:core:domain</title>
            <ellipse cx="187.17" cy="-162" fill="none" stroke="#000" rx="60.05" ry="18"/>
            <text xml:space="preserve" x="187.17" y="-156.95" font-family="Times,serif" font-size="14" text-anchor="middle">:core:domain</text>
        </g>
        <g class="node">
            <title>:core:common</title>
            <ellipse cx="65.17" cy="-90" fill="none" stroke="#000" rx="65.17" ry="18"/>
            <text xml:space="preserve" x="65.17" y="-84.95" font-family="Times,serif" font-size="14" text-anchor="middle">:core:common</text>
        </g>
        <g class="edge">
            <title>:core:domain-&gt;:core:common</title>
            <path fill="none" stroke="red" stroke-width="2" d="M160.09-145.46c-16.94 9.71-38.99 22.37-57.58 33.04"/>
            <path fill="red" stroke="red" stroke-width="2" d="m105.63-110.18-10.41 1.94 6.93-8.01z"/>
        </g>
        <g class="node">
            <title>:core:ui</title>
            <ellipse cx="187.17" cy="-90" fill="none" stroke="#000" rx="39.07" ry="18"/>
            <text xml:space="preserve" x="187.17" y="-84.95" font-family="Times,serif" font-size="14" text-anchor="middle">:core:ui</text>
        </g>
        <g class="edge">
            <title>:core:domain-&gt;:core:ui</title>
            <path fill="none" stroke="#000" d="M187.17-143.7v24.16"/>
            <path stroke="#000" d="m190.67-119.62-3.5 10-3.5-10z"/>
        </g>
        <g class="node">
            <title>:core:designsystem</title>
            <ellipse cx="326.17" cy="-90" fill="none" stroke="#000" rx="82.06" ry="18"/>
            <text xml:space="preserve" x="326.17" y="-84.95" font-family="Times,serif" font-size="14" text-anchor="middle">:core:designsystem</text>
        </g>
        <g class="edge">
            <title>:core:domain-&gt;:core:designsystem</title>
            <path fill="none" stroke="#000" d="M216.99-145.98c19.61 9.87 45.55 22.93 67.22 33.85"/>
            <path stroke="#000" d="m285.76-115.27 7.36 7.62-10.51-1.37z"/>
        </g>
        <g class="node">
            <title>:core:model</title>
            <ellipse cx="65.17" cy="-18" fill="none" stroke="#000" rx="55.45" ry="18"/>
            <text xml:space="preserve" x="65.17" y="-12.95" font-family="Times,serif" font-size="14" text-anchor="middle">:core:model</text>
        </g>
        <g class="edge">
            <title>:core:common-&gt;:core:model</title>
            <path fill="none" stroke="red" stroke-width="2" d="M65.17-71.7v24.16"/>
            <path fill="red" stroke="red" stroke-width="2" d="m68.67-49.13-3.5 10-3.5-10z"/>
        </g>
    </g>
</svg>
