<svg xmlns="http://www.w3.org/2000/svg" width="623pt" height="332pt" viewBox="0 0 623 332">
    <g class="graph" transform="translate(4 328)">
        <title>G</title>
        <path fill="#fff" d="M-4 4v-332h622.7V4z"/>
        <g class="node">
            <title>:feature:screensaver:ui</title>
            <ellipse cx="260.07" cy="-306" fill="none" stroke="#000" rx="94.34" ry="18"/>
            <text xml:space="preserve" x="260.07" y="-300.95" font-family="Times,serif" font-size="14" text-anchor="middle">:feature:screensaver:ui</text>
        </g>
        <g class="node">
            <title>:core:ui</title>
            <ellipse cx="39.07" cy="-90" fill="none" stroke="#000" rx="39.07" ry="18"/>
            <text xml:space="preserve" x="39.07" y="-84.95" font-family="Times,serif" font-size="14" text-anchor="middle">:core:ui</text>
        </g>
        <g class="edge">
            <title>:feature:screensaver:ui-&gt;:core:ui</title>
            <path fill="none" stroke="#000" d="M182.97-295.41c-30.73 7.37-64.33 20.39-87.9 43.41-36.62 35.76-49.32 96.68-53.71 132.45"/>
            <path stroke="#000" d="m44.88-119.53-4.55 9.57-2.41-10.32z"/>
        </g>
        <g class="node">
            <title>:core:designsystem</title>
            <ellipse cx="178.07" cy="-90" fill="none" stroke="#000" rx="82.06" ry="18"/>
            <text xml:space="preserve" x="178.07" y="-84.95" font-family="Times,serif" font-size="14" text-anchor="middle">:core:designsystem</text>
        </g>
        <g class="edge">
            <title>:feature:screensaver:ui-&gt;:core:designsystem</title>
            <path fill="none" stroke="#000" d="M207.56-290.72c-24.44 8.46-52.83 21.05-74.49 38.72-30 24.47-37.61 35.01-49 72-4.71 15.29-8.07 22.18 0 36 8.68 14.86 23.24 25.88 38.34 33.91"/>
            <path stroke="#000" d="m123.53-113.44 7.46 7.53-10.52-1.24z"/>
        </g>
        <g class="node">
            <title>:core:common</title>
            <ellipse cx="369.07" cy="-90" fill="none" stroke="#000" rx="65.17" ry="18"/>
            <text xml:space="preserve" x="369.07" y="-84.95" font-family="Times,serif" font-size="14" text-anchor="middle">:core:common</text>
        </g>
        <g class="edge">
            <title>:feature:screensaver:ui-&gt;:core:common</title>
            <path fill="none" stroke="#000" d="M315.87-291.17c25.48 8.32 54.88 20.91 77.2 39.17 29.57 24.2 36.1 35.37 47 72 4.56 15.34 7.17 21.7 0 36-6.53 13.02-17.94 23.66-29.73 31.9"/>
            <path stroke="#000" d="m412.46-109.31-10.3 2.48 6.51-8.36z"/>
        </g>
        <g class="node">
            <title>:core:domain</title>
            <ellipse cx="153.07" cy="-162" fill="none" stroke="#000" rx="60.05" ry="18"/>
            <text xml:space="preserve" x="153.07" y="-156.95" font-family="Times,serif" font-size="14" text-anchor="middle">:core:domain</text>
        </g>
        <g class="edge">
            <title>:feature:screensaver:ui-&gt;:core:domain</title>
            <path fill="none" stroke="#000" d="M200.23-291.72c-21.13 7.87-42.72 20.28-55.16 39.72-11.5 17.96-8.34 42.3-2.95 60.98"/>
            <path stroke="#000" d="m145.39-192.25-.21 10.59-6.44-8.42z"/>
        </g>
        <g class="node">
            <title>:core:database</title>
            <ellipse cx="551.07" cy="-162" fill="none" stroke="#000" rx="63.63" ry="18"/>
            <text xml:space="preserve" x="551.07" y="-156.95" font-family="Times,serif" font-size="14" text-anchor="middle">:core:database</text>
        </g>
        <g class="edge">
            <title>:feature:screensaver:ui-&gt;:core:database</title>
            <path fill="none" stroke="#000" d="M341.42-296.53c41.72 7.16 91.95 20.33 131.65 44.53 25.51 15.55 47.21 42.16 61.19 62.24"/>
            <path stroke="#000" d="m537.15-191.74 2.68 10.26-8.49-6.35z"/>
        </g>
        <g class="node">
            <title>:core:network</title>
            <ellipse cx="369.07" cy="-162" fill="none" stroke="#000" rx="62.1" ry="18"/>
            <text xml:space="preserve" x="369.07" y="-156.95" font-family="Times,serif" font-size="14" text-anchor="middle">:core:network</text>
        </g>
        <g class="edge">
            <title>:feature:screensaver:ui-&gt;:core:network</title>
            <path fill="none" stroke="#000" d="M319.91-291.72c21.13 7.87 42.71 20.28 55.16 39.72 11.48 17.93 8.9 42.27 4.05 60.96"/>
            <path stroke="#000" d="m382.54-190.28-6.2 8.59-.51-10.58z"/>
        </g>
        <g class="node">
            <title>:feature:hotel-profile:data</title>
            <ellipse cx="260.07" cy="-234" fill="none" stroke="#000" rx="105.6" ry="18"/>
            <text xml:space="preserve" x="260.07" y="-228.95" font-family="Times,serif" font-size="14" text-anchor="middle">:feature:hotel-profile:data</text>
        </g>
        <g class="edge">
            <title>:feature:screensaver:ui-&gt;:feature:hotel-profile:data</title>
            <path fill="none" stroke="red" stroke-width="2" d="M260.07-287.7v24.16"/>
            <path fill="red" stroke="red" stroke-width="2" d="m263.57-265.13-3.5 10-3.5-10z"/>
        </g>
        <g class="node">
            <title>:core:model</title>
            <ellipse cx="415.07" cy="-18" fill="none" stroke="#000" rx="55.45" ry="18"/>
            <text xml:space="preserve" x="415.07" y="-12.95" font-family="Times,serif" font-size="14" text-anchor="middle">:core:model</text>
        </g>
        <g class="edge">
            <title>:core:common-&gt;:core:model</title>
            <path fill="none" stroke="red" stroke-width="2" d="M380.2-72.05c5.26 7.99 11.65 17.72 17.52 26.65"/>
            <path fill="red" stroke="red" stroke-width="2" d="m399.81-48.6 2.56 10.28-8.41-6.43z"/>
        </g>
        <g class="edge">
            <title>:core:domain-&gt;:core:ui</title>
            <path fill="none" stroke="#000" d="M127.48-145.29c-16.61 10.2-38.41 23.59-56.2 34.51"/>
            <path stroke="#000" d="m73.5-108.04-10.35 2.25 6.69-8.21z"/>
        </g>
        <g class="edge">
            <title>:core:domain-&gt;:core:designsystem</title>
            <path fill="none" stroke="#000" d="M159.25-143.7c2.69 7.55 5.92 16.58 8.93 25.02"/>
            <path stroke="#000" d="m171.38-120.12.07 10.59-6.66-8.24z"/>
        </g>
        <g class="edge">
            <title>:core:domain-&gt;:core:common</title>
            <path fill="none" stroke="red" stroke-width="2" d="M192.94-148.08c34.95 11.33 85.98 27.87 124.13 40.23"/>
            <path fill="red" stroke="red" stroke-width="2" d="m316.65-111.67 8.43 6.42-10.59.24z"/>
        </g>
        <g class="edge">
            <title>:core:database-&gt;:core:model</title>
            <path fill="none" stroke="#000" d="M534.93-144.15c-23.85 24.9-68.65 71.68-96.21 100.45"/>
            <path stroke="#000" d="m441.25-41.28-9.44 4.8 4.39-9.64z"/>
        </g>
        <g class="edge">
            <title>:core:network-&gt;:core:common</title>
            <path fill="none" stroke="#000" d="M369.07-143.7v24.16"/>
            <path stroke="#000" d="m372.57-119.62-3.5 10-3.5-10z"/>
        </g>
        <g class="edge">
            <title>:feature:hotel-profile:data-&gt;:core:ui</title>
            <path fill="none" stroke="#000" d="M177.65-222.43c-32.05 7.52-67.29 20.39-93.58 42.43-18.75 15.71-30.51 41.19-37.28 60.86"/>
            <path stroke="#000" d="m50.18-118.25-6.36 8.47-.31-10.59z"/>
        </g>
        <g class="edge">
            <title>:feature:hotel-profile:data-&gt;:core:designsystem</title>
            <path fill="none" stroke="#000" d="M254.32-215.55c-6.48 18.49-17.98 48.18-32.25 71.55-5.86 9.59-13.35 19.29-20.48 27.72"/>
            <path stroke="#000" d="m204.3-114.07-9.22 5.23 3.95-9.83z"/>
        </g>
        <g class="edge">
            <title>:feature:hotel-profile:data-&gt;:core:common</title>
            <path fill="none" stroke="#000" d="M264.56-215.52c5.54 19.06 16.37 49.73 33.51 71.52 9.38 11.92 22.07 22.53 34.13 31.06"/>
            <path stroke="#000" d="m334.07-115.9 6.33 8.49-10.24-2.69z"/>
        </g>
        <g class="edge">
            <title>:feature:hotel-profile:data-&gt;:core:domain</title>
            <path fill="none" stroke="red" stroke-width="2" d="M234.44-216.23c-14.34 9.38-32.38 21.18-47.83 31.28"/>
            <path fill="red" stroke="red" stroke-width="2" d="m190.2-183.11-10.28 2.54 6.45-8.4z"/>
        </g>
        <g class="edge">
            <title>:feature:hotel-profile:data-&gt;:core:database</title>
            <path fill="none" stroke="#000" d="M319.31-218.75c50.67 12.19 123.19 29.63 173.56 41.75"/>
            <path stroke="#000" d="m493.53-180.44 8.9 5.74-10.54 1.06z"/>
        </g>
        <g class="edge">
            <title>:feature:hotel-profile:data-&gt;:core:network</title>
            <path fill="none" stroke="#000" d="M286.18-216.23c14.6 9.38 32.98 21.18 48.72 31.28"/>
            <path stroke="#000" d="m336.5-188.08 6.52 8.35-10.3-2.46z"/>
        </g>
    </g>
</svg>
