<svg xmlns="http://www.w3.org/2000/svg" width="416pt" height="260pt" viewBox="0 0 416 260">
    <g class="graph" transform="translate(4 256)">
        <title>G</title>
        <path fill="#fff" d="M-4 4v-260h416.24V4z"/>
        <g class="node">
            <title>:feature:home:ui</title>
            <ellipse cx="204.07" cy="-234" fill="none" stroke="#000" rx="72.34" ry="18"/>
            <text xml:space="preserve" x="204.07" y="-228.95" font-family="Times,serif" font-size="14" text-anchor="middle">:feature:home:ui</text>
        </g>
        <g class="node">
            <title>:core:ui</title>
            <ellipse cx="39.07" cy="-90" fill="none" stroke="#000" rx="39.07" ry="18"/>
            <text xml:space="preserve" x="39.07" y="-84.95" font-family="Times,serif" font-size="14" text-anchor="middle">:core:ui</text>
        </g>
        <g class="edge">
            <title>:feature:home:ui-&gt;:core:ui</title>
            <path fill="none" stroke="#000" d="M159.92-219.4c-22.54 8.59-49.26 21.5-68.85 39.4-18.56 16.95-32.4 42.09-41.12 61.33"/>
            <path stroke="#000" d="m53.18-117.32-7.17 7.8.74-10.57z"/>
        </g>
        <g class="node">
            <title>:core:designsystem</title>
            <ellipse cx="178.07" cy="-90" fill="none" stroke="#000" rx="82.06" ry="18"/>
            <text xml:space="preserve" x="178.07" y="-84.95" font-family="Times,serif" font-size="14" text-anchor="middle">:core:designsystem</text>
        </g>
        <g class="edge">
            <title>:feature:home:ui-&gt;:core:designsystem</title>
            <path fill="none" stroke="#000" d="M215.44-215.9c10.6 18.19 23.41 47.64 13.63 71.9-4.29 10.64-11.84 20.33-19.85 28.44"/>
            <path stroke="#000" d="m211.64-113.03-9.7 4.28 4.91-9.39z"/>
        </g>
        <g class="node">
            <title>:core:common</title>
            <ellipse cx="343.07" cy="-90" fill="none" stroke="#000" rx="65.17" ry="18"/>
            <text xml:space="preserve" x="343.07" y="-84.95" font-family="Times,serif" font-size="14" text-anchor="middle">:core:common</text>
        </g>
        <g class="edge">
            <title>:feature:home:ui-&gt;:core:common</title>
            <path fill="none" stroke="#000" d="M220.56-216.15c24.35 24.87 70.07 71.58 98.24 100.36"/>
            <path stroke="#000" d="m321.05-118.5 4.49 9.59-9.5-4.69z"/>
        </g>
        <g class="node">
            <title>:core:domain</title>
            <ellipse cx="160.07" cy="-162" fill="none" stroke="#000" rx="60.05" ry="18"/>
            <text xml:space="preserve" x="160.07" y="-156.95" font-family="Times,serif" font-size="14" text-anchor="middle">:core:domain</text>
        </g>
        <g class="edge">
            <title>:feature:home:ui-&gt;:core:domain</title>
            <path fill="none" stroke="red" stroke-width="2" d="M193.42-216.05c-5.03 7.99-11.14 17.72-16.76 26.65"/>
            <path fill="red" stroke="red" stroke-width="2" d="m180.52-188.96-8.29 6.61 2.36-10.33z"/>
        </g>
        <g class="node">
            <title>:core:model</title>
            <ellipse cx="343.07" cy="-18" fill="none" stroke="#000" rx="55.45" ry="18"/>
            <text xml:space="preserve" x="343.07" y="-12.95" font-family="Times,serif" font-size="14" text-anchor="middle">:core:model</text>
        </g>
        <g class="edge">
            <title>:core:common-&gt;:core:model</title>
            <path fill="none" stroke="red" stroke-width="2" d="M343.07-71.7v24.16"/>
            <path fill="red" stroke="red" stroke-width="2" d="m346.57-49.13-3.5 10-3.5-10z"/>
        </g>
        <g class="edge">
            <title>:core:domain-&gt;:core:ui</title>
            <path fill="none" stroke="#000" d="M133.21-145.46c-17.94 10.37-41.67 24.1-60.81 35.18"/>
            <path stroke="#000" d="m74.3-107.34-10.41 1.98 6.9-8.04z"/>
        </g>
        <g class="edge">
            <title>:core:domain-&gt;:core:designsystem</title>
            <path fill="none" stroke="#000" d="M164.52-143.7c1.89 7.38 4.16 16.18 6.28 24.45"/>
            <path stroke="#000" d="m174.19-120.13-.9 10.56-5.88-8.81z"/>
        </g>
        <g class="edge">
            <title>:core:domain-&gt;:core:common</title>
            <path fill="none" stroke="red" stroke-width="2" d="M196.22-147.17c28.42 10.87 68.25 26.11 99.26 37.97"/>
            <path fill="red" stroke="red" stroke-width="2" d="m295.13-113.08 8.09 6.84-10.59-.31z"/>
        </g>
    </g>
</svg>
