<svg xmlns="http://www.w3.org/2000/svg" width="805pt" height="404pt" viewBox="0 0 805 404">
    <g class="graph" transform="translate(4 400)">
        <title>G</title>
        <path fill="#fff" d="M-4 4v-404h804.7V4z"/>
        <g class="node">
            <title>:feature:main-menu:data</title>
            <ellipse cx="307.07" cy="-378" fill="none" stroke="#000" rx="102.53" ry="18"/>
            <text xml:space="preserve" x="307.07" y="-372.95" font-family="Times,serif" font-size="14" text-anchor="middle">:feature:main-menu:data</text>
        </g>
        <g class="node">
            <title>:core:ui</title>
            <ellipse cx="39.07" cy="-234" fill="none" stroke="#000" rx="39.07" ry="18"/>
            <text xml:space="preserve" x="39.07" y="-228.95" font-family="Times,serif" font-size="14" text-anchor="middle">:core:ui</text>
        </g>
        <g class="edge">
            <title>:feature:main-menu:data-&gt;:core:ui</title>
            <path fill="none" stroke="#000" d="M238.37-364.33c-33.88 8.2-74.41 21.03-107.3 40.33-28.59 16.78-55.1 44.22-72.24 64.2"/>
            <path stroke="#000" d="m61.71-257.79-9.1 5.42 3.73-9.91z"/>
        </g>
        <g class="node">
            <title>:core:designsystem</title>
            <ellipse cx="216.07" cy="-234" fill="none" stroke="#000" rx="82.06" ry="18"/>
            <text xml:space="preserve" x="216.07" y="-228.95" font-family="Times,serif" font-size="14" text-anchor="middle">:core:designsystem</text>
        </g>
        <g class="edge">
            <title>:feature:main-menu:data-&gt;:core:designsystem</title>
            <path fill="none" stroke="#000" d="M301.85-359.62c-6.1 18.69-17.35 48.79-32.78 71.62-6.83 10.11-15.77 19.92-24.35 28.3"/>
            <path stroke="#000" d="m247.13-257.17-9.68 4.29 4.89-9.4z"/>
        </g>
        <g class="node">
            <title>:core:common</title>
            <ellipse cx="405.07" cy="-90" fill="none" stroke="#000" rx="65.17" ry="18"/>
            <text xml:space="preserve" x="405.07" y="-84.95" font-family="Times,serif" font-size="14" text-anchor="middle">:core:common</text>
        </g>
        <g class="edge">
            <title>:feature:main-menu:data-&gt;:core:common</title>
            <path fill="none" stroke="#000" d="M307.14-359.7c.46 47.52 3.68 179 24.93 215.7 7.49 12.94 19.55 23.6 31.72 31.88"/>
            <path stroke="#000" d="m365.63-115.1 6.59 8.3-10.32-2.38z"/>
        </g>
        <g class="node">
            <title>:core:domain</title>
            <ellipse cx="200.07" cy="-306" fill="none" stroke="#000" rx="60.05" ry="18"/>
            <text xml:space="preserve" x="200.07" y="-300.95" font-family="Times,serif" font-size="14" text-anchor="middle">:core:domain</text>
        </g>
        <g class="edge">
            <title>:feature:main-menu:data-&gt;:core:domain</title>
            <path fill="none" stroke="red" stroke-width="2" d="M281.44-360.23c-14.34 9.38-32.38 21.18-47.83 31.28"/>
            <path fill="red" stroke="red" stroke-width="2" d="m237.2-327.11-10.28 2.54 6.45-8.4z"/>
        </g>
        <g class="node">
            <title>:core:database</title>
            <ellipse cx="733.07" cy="-162" fill="none" stroke="#000" rx="63.63" ry="18"/>
            <text xml:space="preserve" x="733.07" y="-156.95" font-family="Times,serif" font-size="14" text-anchor="middle">:core:database</text>
        </g>
        <g class="edge">
            <title>:feature:main-menu:data-&gt;:core:database</title>
            <path fill="none" stroke="#000" d="M339.79-360.56c76.88 38.62 268.88 135.07 352.87 177.26"/>
            <path stroke="#000" d="m694.11-186.49 7.36 7.62-10.5-1.36z"/>
        </g>
        <g class="node">
            <title>:core:network</title>
            <ellipse cx="403.07" cy="-162" fill="none" stroke="#000" rx="62.1" ry="18"/>
            <text xml:space="preserve" x="403.07" y="-156.95" font-family="Times,serif" font-size="14" text-anchor="middle">:core:network</text>
        </g>
        <g class="edge">
            <title>:feature:main-menu:data-&gt;:core:network</title>
            <path fill="none" stroke="#000" d="M318.9-359.8c6.7 10.15 14.95 23.4 21.17 35.8 22.63 45.12 42.71 100.44 53.83 133.08"/>
            <path stroke="#000" d="m397.1-192.4-.13 10.6-6.51-8.36z"/>
        </g>
        <g class="node">
            <title>:core:model</title>
            <ellipse cx="693.07" cy="-18" fill="none" stroke="#000" rx="55.45" ry="18"/>
            <text xml:space="preserve" x="693.07" y="-12.95" font-family="Times,serif" font-size="14" text-anchor="middle">:core:model</text>
        </g>
        <g class="edge">
            <title>:core:common-&gt;:core:model</title>
            <path fill="none" stroke="red" stroke-width="2" d="M452.95-77.36c51.22 12.45 132.3 32.15 185.85 45.17"/>
            <path fill="red" stroke="red" stroke-width="2" d="m637.95-36 8.9 5.77-10.55 1.03z"/>
        </g>
        <g class="edge">
            <title>:core:domain-&gt;:core:ui</title>
            <path fill="none" stroke="#000" d="M167.1-290.67c-26.07 11.34-62.5 27.18-89.84 39.07"/>
            <path stroke="#000" d="m78.85-248.48-10.56.78 7.77-7.2z"/>
        </g>
        <g class="edge">
            <title>:core:domain-&gt;:core:designsystem</title>
            <path fill="none" stroke="#000" d="M204.02-287.7c1.69 7.38 3.7 16.18 5.59 24.45"/>
            <path stroke="#000" d="m213-264.11-1.18 10.53-5.64-8.97z"/>
        </g>
        <g class="edge">
            <title>:core:domain-&gt;:core:common</title>
            <path fill="none" stroke="#000" d="M166.9-290.62c-15.72 8.71-32.96 21.49-41.83 38.62-7.36 14.21-8.71 22.58 0 36 46.21 71.24 143.55 102.24 210.36 115.48"/>
            <path stroke="#000" d="m336.04-103.97 9.17 5.29-10.47 1.59z"/>
        </g>
        <g class="node">
            <title>:core:data</title>
            <ellipse cx="493.07" cy="-234" fill="none" stroke="#000" rx="47.26" ry="18"/>
            <text xml:space="preserve" x="493.07" y="-228.95" font-family="Times,serif" font-size="14" text-anchor="middle">:core:data</text>
        </g>
        <g class="edge">
            <title>:core:domain-&gt;:core:data</title>
            <path fill="none" stroke="red" stroke-width="2" d="M245.85-294.06c53.45 12.77 141.58 33.82 196.91 47.04"/>
            <path fill="red" stroke="red" stroke-width="2" d="m441.85-250.84 8.91 5.73-10.54 1.08z"/>
        </g>
        <g class="edge">
            <title>:core:database-&gt;:core:model</title>
            <path fill="none" stroke="#000" d="M728.16-143.59c-6.78 24.09-19.1 67.84-27.19 96.56"/>
            <path stroke="#000" d="m704.38-46.24-6.08 8.67-.66-10.57z"/>
        </g>
        <g class="edge">
            <title>:core:network-&gt;:core:common</title>
            <path fill="none" stroke="#000" d="M403.56-143.7c.21 7.29.46 15.97.69 24.16"/>
            <path stroke="#000" d="m407.75-119.71-3.21 10.09-3.79-9.89z"/>
        </g>
        <g class="edge">
            <title>:core:data-&gt;:core:common</title>
            <path fill="none" stroke="#000" d="M492.85-215.61c-1 18.97-4.87 49.57-18.78 71.61-7.69 12.17-19.21 22.63-30.66 30.96"/>
            <path stroke="#000" d="m445.39-110.15-10.23 2.74 6.28-8.52z"/>
        </g>
        <g class="edge">
            <title>:core:data-&gt;:core:database</title>
            <path fill="none" stroke="#000" d="M529.78-222.29c39.79 11.6 103.69 30.24 149.22 43.52"/>
            <path stroke="#000" d="m679.79-182.19 8.62 6.16-10.58.56z"/>
        </g>
        <g class="edge">
            <title>:core:data-&gt;:core:network</title>
            <path fill="none" stroke="#000" d="M473.09-217.46c-11.86 9.22-27.13 21.1-40.38 31.41"/>
            <path stroke="#000" d="m435.16-183.53-10.04 3.38 5.74-8.9z"/>
        </g>
        <g class="node">
            <title>:core:datastore</title>
            <ellipse cx="586.07" cy="-162" fill="none" stroke="#000" rx="65.17" ry="18"/>
            <text xml:space="preserve" x="586.07" y="-156.95" font-family="Times,serif" font-size="14" text-anchor="middle">:core:datastore</text>
        </g>
        <g class="edge">
            <title>:core:data-&gt;:core:datastore</title>
            <path fill="none" stroke="red" stroke-width="2" d="M513.71-217.46c12.26 9.22 28.04 21.1 41.73 31.41"/>
            <path fill="red" stroke="red" stroke-width="2" d="m556.21-189.85 5.89 8.81-10.1-3.22z"/>
        </g>
        <g class="edge">
            <title>:core:datastore-&gt;:core:common</title>
            <path fill="none" stroke="red" stroke-width="2" d="M549.44-146.83c-28 10.82-66.81 25.83-97.14 37.57"/>
            <path fill="red" stroke="red" stroke-width="2" d="m455.36-106.7-10.58.34 8.06-6.87z"/>
        </g>
        <g class="edge">
            <title>:core:datastore-&gt;:core:model</title>
            <path fill="none" stroke="#000" d="M623.22-146.99c17.97 8.62 38.32 21.42 50.85 38.99 12.49 17.52 17.07 41.58 18.62 60.27"/>
            <path stroke="#000" d="m696.18-48.04-2.94 10.18-4.05-9.79z"/>
        </g>
        <g class="node">
            <title>:core:datastore-proto</title>
            <ellipse cx="577.07" cy="-90" fill="none" stroke="#000" rx="87.69" ry="18"/>
            <text xml:space="preserve" x="577.07" y="-84.95" font-family="Times,serif" font-size="14" text-anchor="middle">:core:datastore-proto</text>
        </g>
        <g class="edge">
            <title>:core:datastore-&gt;:core:datastore-proto</title>
            <path fill="none" stroke="#000" d="M583.84-143.7c-.94 7.38-2.08 16.18-3.14 24.45"/>
            <path stroke="#000" d="m584.21-119.08-4.75 9.47-2.2-10.36z"/>
        </g>
    </g>
</svg>
