<svg xmlns="http://www.w3.org/2000/svg" width="416pt" height="260pt" viewBox="0 0 416 260">
    <g class="graph" transform="translate(4 256)">
        <title>G</title>
        <path fill="#fff" d="M-4 4v-260h416.24V4z"/>
        <g class="node">
            <title>:feature:home:data</title>
            <ellipse cx="178.07" cy="-234" fill="none" stroke="#000" rx="80.52" ry="18"/>
            <text xml:space="preserve" x="178.07" y="-228.95" font-family="Times,serif" font-size="14" text-anchor="middle">:feature:home:data</text>
        </g>
        <g class="node">
            <title>:core:ui</title>
            <ellipse cx="39.07" cy="-90" fill="none" stroke="#000" rx="39.07" ry="18"/>
            <text xml:space="preserve" x="39.07" y="-84.95" font-family="Times,serif" font-size="14" text-anchor="middle">:core:ui</text>
        </g>
        <g class="edge">
            <title>:feature:home:data-&gt;:core:ui</title>
            <path fill="none" stroke="#000" d="M149.09-216.91c-15.59 9.49-34.52 22.47-49.02 36.91-18.7 18.63-35.3 43.71-46.44 62.5"/>
            <path stroke="#000" d="m56.81-116.01-8.03 6.91 1.97-10.41z"/>
        </g>
        <g class="node">
            <title>:core:designsystem</title>
            <ellipse cx="178.07" cy="-90" fill="none" stroke="#000" rx="82.06" ry="18"/>
            <text xml:space="preserve" x="178.07" y="-84.95" font-family="Times,serif" font-size="14" text-anchor="middle">:core:designsystem</text>
        </g>
        <g class="edge">
            <title>:feature:home:data-&gt;:core:designsystem</title>
            <path fill="none" stroke="#000" d="M146.04-217.11c-14.08 8.82-29.16 21.26-36.97 37.11-7.08 14.35-7.08 21.65 0 36 6.1 12.38 16.64 22.68 27.68 30.8"/>
            <path stroke="#000" d="m138.48-116.25 6.31 8.51-10.24-2.72z"/>
        </g>
        <g class="node">
            <title>:core:common</title>
            <ellipse cx="343.07" cy="-90" fill="none" stroke="#000" rx="65.17" ry="18"/>
            <text xml:space="preserve" x="343.07" y="-84.95" font-family="Times,serif" font-size="14" text-anchor="middle">:core:common</text>
        </g>
        <g class="edge">
            <title>:feature:home:data-&gt;:core:common</title>
            <path fill="none" stroke="#000" d="M247.95-224.71c54.48 8.06 123.73 22.41 141.12 44.71 15.49 19.86-1.27 45.73-18.74 64.46"/>
            <path stroke="#000" d="m372.94-113.21-9.52 4.65 4.55-9.57z"/>
        </g>
        <g class="node">
            <title>:core:domain</title>
            <ellipse cx="178.07" cy="-162" fill="none" stroke="#000" rx="60.05" ry="18"/>
            <text xml:space="preserve" x="178.07" y="-156.95" font-family="Times,serif" font-size="14" text-anchor="middle">:core:domain</text>
        </g>
        <g class="edge">
            <title>:feature:home:data-&gt;:core:domain</title>
            <path fill="none" stroke="red" stroke-width="2" d="M178.07-215.7v24.16"/>
            <path fill="red" stroke="red" stroke-width="2" d="m181.57-193.13-3.5 10-3.5-10z"/>
        </g>
        <g class="node">
            <title>:core:network</title>
            <ellipse cx="318.07" cy="-162" fill="none" stroke="#000" rx="62.1" ry="18"/>
            <text xml:space="preserve" x="318.07" y="-156.95" font-family="Times,serif" font-size="14" text-anchor="middle">:core:network</text>
        </g>
        <g class="edge">
            <title>:feature:home:data-&gt;:core:network</title>
            <path fill="none" stroke="#000" d="M209.84-217.12c20.1 10.06 46.28 23.15 67.85 33.93"/>
            <path stroke="#000" d="m279.13-186.38 7.38 7.6-10.51-1.34z"/>
        </g>
        <g class="node">
            <title>:core:model</title>
            <ellipse cx="343.07" cy="-18" fill="none" stroke="#000" rx="55.45" ry="18"/>
            <text xml:space="preserve" x="343.07" y="-12.95" font-family="Times,serif" font-size="14" text-anchor="middle">:core:model</text>
        </g>
        <g class="edge">
            <title>:core:common-&gt;:core:model</title>
            <path fill="none" stroke="red" stroke-width="2" d="M343.07-71.7v24.16"/>
            <path fill="red" stroke="red" stroke-width="2" d="m346.57-49.13-3.5 10-3.5-10z"/>
        </g>
        <g class="edge">
            <title>:core:domain-&gt;:core:ui</title>
            <path fill="none" stroke="#000" d="M148.25-145.98c-21.49 10.82-50.58 25.47-73.33 36.93"/>
            <path stroke="#000" d="m76.5-105.93-10.51 1.37 7.36-7.62z"/>
        </g>
        <g class="edge">
            <title>:core:domain-&gt;:core:designsystem</title>
            <path fill="none" stroke="#000" d="M178.07-143.7v24.16"/>
            <path stroke="#000" d="m181.57-119.62-3.5 10-3.5-10z"/>
        </g>
        <g class="edge">
            <title>:core:domain-&gt;:core:common</title>
            <path fill="none" stroke="red" stroke-width="2" d="M211.86-146.67c24.88 10.56 58.98 25.03 86.18 36.57"/>
            <path fill="red" stroke="red" stroke-width="2" d="m297.85-113.99 7.84 7.13-10.58-.68z"/>
        </g>
        <g class="edge">
            <title>:core:network-&gt;:core:common</title>
            <path fill="none" stroke="#000" d="M324.25-143.7c2.69 7.55 5.92 16.58 8.93 25.02"/>
            <path stroke="#000" d="m336.38-120.12.07 10.59-6.66-8.24z"/>
        </g>
    </g>
</svg>
