<svg xmlns="http://www.w3.org/2000/svg" width="818pt" height="404pt" viewBox="0 0 818 404">
    <g class="graph" transform="translate(4 400)">
        <title>G</title>
        <path fill="#fff" d="M-4 4v-404h817.7V4z"/>
        <g class="node">
            <title>:feature:restaurant:data</title>
            <ellipse cx="371.07" cy="-378" fill="none" stroke="#000" rx="95.88" ry="18"/>
            <text xml:space="preserve" x="371.07" y="-372.95" font-family="Times,serif" font-size="14" text-anchor="middle">:feature:restaurant:data</text>
        </g>
        <g class="node">
            <title>:core:ui</title>
            <ellipse cx="39.07" cy="-234" fill="none" stroke="#000" rx="39.07" ry="18"/>
            <text xml:space="preserve" x="39.07" y="-228.95" font-family="Times,serif" font-size="14" text-anchor="middle">:core:ui</text>
        </g>
        <g class="edge">
            <title>:feature:restaurant:data-&gt;:core:ui</title>
            <path fill="none" stroke="#000" d="M301.46-365.27c-40.44 8.35-91.67 21.63-134.39 41.27-37.95 17.44-76.65 46.19-101.41 66.28"/>
            <path stroke="#000" d="m67.99-255.11-9.94 3.66 5.49-9.06z"/>
        </g>
        <g class="node">
            <title>:core:designsystem</title>
            <ellipse cx="178.07" cy="-234" fill="none" stroke="#000" rx="82.06" ry="18"/>
            <text xml:space="preserve" x="178.07" y="-228.95" font-family="Times,serif" font-size="14" text-anchor="middle">:core:designsystem</text>
        </g>
        <g class="edge">
            <title>:feature:restaurant:data-&gt;:core:designsystem</title>
            <path fill="none" stroke="#000" d="M299.9-365.72c-46.75 8.99-101.93 23.14-116.83 41.72-13.41 16.72-13.78 41.39-11.29 60.52"/>
            <path stroke="#000" d="m175.23-264.06-1.81 10.44-5.09-9.3z"/>
        </g>
        <g class="node">
            <title>:core:common</title>
            <ellipse cx="418.07" cy="-90" fill="none" stroke="#000" rx="65.17" ry="18"/>
            <text xml:space="preserve" x="418.07" y="-84.95" font-family="Times,serif" font-size="14" text-anchor="middle">:core:common</text>
        </g>
        <g class="edge">
            <title>:feature:restaurant:data-&gt;:core:common</title>
            <path fill="none" stroke="#000" d="M362.97-359.75c-17.65 40.29-55.15 142.68-17.9 215.75 6.73 13.21 18.47 23.9 30.59 32.13"/>
            <path stroke="#000" d="m377.47-114.87 6.62 8.26-10.33-2.33z"/>
        </g>
        <g class="node">
            <title>:core:domain</title>
            <ellipse cx="252.07" cy="-306" fill="none" stroke="#000" rx="60.05" ry="18"/>
            <text xml:space="preserve" x="252.07" y="-300.95" font-family="Times,serif" font-size="14" text-anchor="middle">:core:domain</text>
        </g>
        <g class="edge">
            <title>:feature:restaurant:data-&gt;:core:domain</title>
            <path fill="none" stroke="red" stroke-width="2" d="M342.87-360.41c-16.32 9.6-37.03 21.78-54.55 32.08"/>
            <path fill="red" stroke="red" stroke-width="2" d="m291.44-326.1-10.39 2.05 6.84-8.08z"/>
        </g>
        <g class="node">
            <title>:core:database</title>
            <ellipse cx="746.07" cy="-162" fill="none" stroke="#000" rx="63.63" ry="18"/>
            <text xml:space="preserve" x="746.07" y="-156.95" font-family="Times,serif" font-size="14" text-anchor="middle">:core:database</text>
        </g>
        <g class="edge">
            <title>:feature:restaurant:data-&gt;:core:database</title>
            <path fill="none" stroke="#000" d="M417.2-361.89c26.86 9.49 61.02 22.79 89.87 37.89 79.7 41.72 165.34 104.26 209.27 137.79"/>
            <path stroke="#000" d="m718.31-189.11 5.8 8.87-10.06-3.31z"/>
        </g>
        <g class="node">
            <title>:core:datastore</title>
            <ellipse cx="599.07" cy="-162" fill="none" stroke="#000" rx="65.17" ry="18"/>
            <text xml:space="preserve" x="599.07" y="-156.95" font-family="Times,serif" font-size="14" text-anchor="middle">:core:datastore</text>
        </g>
        <g class="edge">
            <title>:feature:restaurant:data-&gt;:core:datastore</title>
            <path fill="none" stroke="#000" d="M405.17-360.74c40.18 20.59 106.9 59.38 149.9 108.74 15.63 17.95 27.21 42.44 34.55 61.18"/>
            <path stroke="#000" d="m592.81-192.28.21 10.6-6.77-8.15z"/>
        </g>
        <g class="node">
            <title>:core:data</title>
            <ellipse cx="499.07" cy="-234" fill="none" stroke="#000" rx="47.26" ry="18"/>
            <text xml:space="preserve" x="499.07" y="-228.95" font-family="Times,serif" font-size="14" text-anchor="middle">:core:data</text>
        </g>
        <g class="edge">
            <title>:feature:restaurant:data-&gt;:core:data</title>
            <path fill="none" stroke="#000" d="M386.51-359.87c22.53 25 64.56 71.62 90.4 100.28"/>
            <path stroke="#000" d="m479.26-262.21 4.09 9.77-9.29-5.08z"/>
        </g>
        <g class="node">
            <title>:core:network</title>
            <ellipse cx="416.07" cy="-162" fill="none" stroke="#000" rx="62.1" ry="18"/>
            <text xml:space="preserve" x="416.07" y="-156.95" font-family="Times,serif" font-size="14" text-anchor="middle">:core:network</text>
        </g>
        <g class="edge">
            <title>:feature:restaurant:data-&gt;:core:network</title>
            <path fill="none" stroke="#000" d="M374.67-359.85c7.74 36.78 25.99 123.56 35.46 168.61"/>
            <path stroke="#000" d="m413.5-192.22-1.37 10.51-5.48-9.07z"/>
        </g>
        <g class="node">
            <title>:core:model</title>
            <ellipse cx="512.07" cy="-18" fill="none" stroke="#000" rx="55.45" ry="18"/>
            <text xml:space="preserve" x="512.07" y="-12.95" font-family="Times,serif" font-size="14" text-anchor="middle">:core:model</text>
        </g>
        <g class="edge">
            <title>:core:common-&gt;:core:model</title>
            <path fill="none" stroke="red" stroke-width="2" d="M439.87-72.76c12.43 9.25 28.19 20.99 41.81 31.13"/>
            <path fill="red" stroke="red" stroke-width="2" d="m482.35-45.49 5.93 8.78-10.11-3.17z"/>
        </g>
        <g class="edge">
            <title>:core:domain-&gt;:core:ui</title>
            <path fill="none" stroke="#000" d="M211.61-292.37C178.14-281.84 129.4-266.29 87.07-252c-2.35.79-4.76 1.62-7.19 2.45"/>
            <path stroke="#000" d="m81.26-246.32-10.6-.02 8.3-6.59z"/>
        </g>
        <g class="edge">
            <title>:core:domain-&gt;:core:designsystem</title>
            <path fill="none" stroke="#000" d="M234.53-288.41c-9.08 8.59-20.35 19.25-30.43 28.78"/>
            <path stroke="#000" d="m206.76-257.33-9.67 4.33 4.86-9.41z"/>
        </g>
        <g class="edge">
            <title>:core:domain-&gt;:core:common</title>
            <path fill="none" stroke="#000" d="M257.7-287.74c12.92 39.23 44.33 132.56 54.37 143.74 14.14 15.75 34.04 27.4 52.78 35.7"/>
            <path stroke="#000" d="m366.11-111.57 7.89 7.08-10.58-.61z"/>
        </g>
        <g class="edge">
            <title>:core:domain-&gt;:core:data</title>
            <path fill="none" stroke="red" stroke-width="2" d="M294.53-292.97c43.49 12.33 110.97 31.45 156.42 44.33"/>
            <path fill="red" stroke="red" stroke-width="2" d="m450.42-252.43 8.66 6.1-10.57.64z"/>
        </g>
        <g class="edge">
            <title>:core:database-&gt;:core:model</title>
            <path fill="none" stroke="#000" d="M746.97-143.76c.07 20-3.05 52.67-21.9 71.76-20.99 21.24-96.09 36.34-151.2 44.85"/>
            <path stroke="#000" d="m574.7-23.73-10.41-1.98 9.37-4.95z"/>
        </g>
        <g class="edge">
            <title>:core:datastore-&gt;:core:common</title>
            <path fill="none" stroke="red" stroke-width="2" d="M562.44-146.83c-28 10.82-66.81 25.83-97.14 37.57"/>
            <path fill="red" stroke="red" stroke-width="2" d="m468.36-106.7-10.58.34 8.06-6.87z"/>
        </g>
        <g class="edge">
            <title>:core:datastore-&gt;:core:model</title>
            <path fill="none" stroke="#000" d="M570.65-145.36c-13.99 9.12-29.89 21.88-39.58 37.36-11.35 18.12-16.01 41.96-17.88 60.41"/>
            <path stroke="#000" d="m516.7-47.58-4.26 9.7-2.72-10.24z"/>
        </g>
        <g class="node">
            <title>:core:datastore-proto</title>
            <ellipse cx="628.07" cy="-90" fill="none" stroke="#000" rx="87.69" ry="18"/>
            <text xml:space="preserve" x="628.07" y="-84.95" font-family="Times,serif" font-size="14" text-anchor="middle">:core:datastore-proto</text>
        </g>
        <g class="edge">
            <title>:core:datastore-&gt;:core:datastore-proto</title>
            <path fill="none" stroke="#000" d="M606.24-143.7c3.12 7.55 6.86 16.58 10.36 25.02"/>
            <path stroke="#000" d="m619.81-120.08.59 10.58-7.06-7.9z"/>
        </g>
        <g class="edge">
            <title>:core:data-&gt;:core:common</title>
            <path fill="none" stroke="#000" d="M500.48-215.7c.74 18.9-.52 49.44-13.41 71.7-7.16 12.36-18.44 22.81-29.82 31.09"/>
            <path stroke="#000" d="m459.25-110.04-10.24 2.71 6.31-8.5z"/>
        </g>
        <g class="edge">
            <title>:core:data-&gt;:core:database</title>
            <path fill="none" stroke="#000" d="M536.31-222.44c41.18 11.66 107.9 30.57 155.02 43.93"/>
            <path stroke="#000" d="m692.13-181.92 8.67 6.09-10.57.64z"/>
        </g>
        <g class="edge">
            <title>:core:data-&gt;:core:datastore</title>
            <path fill="none" stroke="red" stroke-width="2" d="M520.77-217.81c13.51 9.46 31.13 21.79 46.23 32.36"/>
            <path fill="red" stroke="red" stroke-width="2" d="m567.35-189.47 6.19 8.6-10.2-2.87z"/>
        </g>
        <g class="edge">
            <title>:core:data-&gt;:core:network</title>
            <path fill="none" stroke="#000" d="M480.23-217.12c-10.59 8.94-24.03 20.27-35.87 30.26"/>
            <path stroke="#000" d="m446.75-184.3-9.9 3.77 5.39-9.12z"/>
        </g>
        <g class="edge">
            <title>:core:network-&gt;:core:common</title>
            <path fill="none" stroke="#000" d="M416.56-143.7c.21 7.29.46 15.97.69 24.16"/>
            <path stroke="#000" d="m420.75-119.71-3.21 10.09-3.79-9.89z"/>
        </g>
    </g>
</svg>
